<svg fill="#000000" viewBox="0 0 24 24" xmlns="http://www.w3.org/2000/svg"><path d="M12 1.25a3.746 3.746 0 0 0-3.75 3.75h0v.563a3.746 3.746 0 0 0-3.187 3.687h0v.563a3.746 3.746 0 0 0-2.625 3.562h0v.563a3.746 3.746 0 0 0 2.063 3.437h0v.563a3.746 3.746 0 0 0 3.187 3.687h0v.563a3.746 3.746 0 0 0 3.75 3.75h0a3.746 3.746 0 0 0 3.75-3.75h0v-.563a3.746 3.746 0 0 0 3.188-3.687h0v-.563a3.746 3.746 0 0 0 2.625-3.562h0v-.563a3.746 3.746 0 0 0-2.063-3.437h0v-.563a3.746 3.746 0 0 0-3.188-3.687h0v-.563a3.746 3.746 0 0 0-3.75-3.75h0Zm0 1.5a2.246 2.246 0 0 1 2.25 2.25h0v.563a3.746 3.746 0 0 0 3.188 3.687h0v.563a3.746 3.746 0 0 0 2.063 3.437h0v.563a2.246 2.246 0 0 1-1.438 2.125h0a3.733 3.733 0 0 0-2.812-2.813h0a3.733 3.733 0 0 0-2.813-2.812h0a3.733 3.733 0 0 0-2.812 2.812h0a3.733 3.733 0 0 0-2.813 2.813h0A2.246 2.246 0 0 1 5.188 14h0v-.563a3.746 3.746 0 0 0 2.625-3.562h0v-.563a3.746 3.746 0 0 0 3.188-3.687h0v-.563a2.246 2.246 0 0 1 1-2.062h0a2.23 2.23 0 0 1 1.25-.188h0Z"/></svg>
